<?xml version="1.0"?>
<svg xmlns="http://www.w3.org/2000/svg" height="512px" viewBox="0 -24 496 496" width="512px"><g><path d="m120 224c48.519531 0 88-50.238281 88-112s-39.480469-112-88-112-88 50.238281-88 112 39.480469 112 88 112zm72-112c0 50.089844-28.929688 91.28125-65.671875 95.574219.070313-.101563.136719-.199219.207031-.300781 8.183594-11.601563 17.464844-24.753907 17.464844-49.960938s-9.28125-38.351562-17.464844-49.960938c-7.800781-11.046874-14.535156-20.589843-14.535156-40.726562 0-20.121094 6.734375-29.65625 14.535156-40.703125 1.898438-2.683594 3.792969-5.496094 5.65625-8.441406 33.90625 7.765625 59.808594 47.144531 59.808594 94.519531zm-78.351562-95.566406c-.0625.085937-.121094.175781-.183594.261718-8.183594 11.59375-17.464844 24.730469-17.464844 49.929688 0 25.207031 9.28125 38.351562 17.464844 49.960938 7.800781 11.046874 14.535156 20.589843 14.535156 40.726562s-6.734375 29.679688-14.535156 40.726562c-1.898438 2.695313-3.808594 5.519532-5.671875 8.472657-33.898438-7.769531-59.792969-47.136719-59.792969-94.511719 0-50.070312 28.921875-91.265625 65.648438-95.566406zm0 0" data-original="#000000" class="active-path" data-old_color="#000000" fill="#38220F"/><path d="m464 264c-4.488281 0-6.40625-1.734375-10.328125-5.65625-4.359375-4.359375-10.335937-10.34375-21.640625-10.34375s-17.289062 5.984375-21.648438 10.34375c-3.917968 3.921875-5.839843 5.65625-10.328124 5.65625-4.503907 0-6.429688-1.734375-10.351563-5.664062-4.375-4.359376-10.359375-10.335938-21.679687-10.335938-11.320313 0-17.296876 5.976562-21.664063 10.335938-3.925781 3.929687-5.855469 5.664062-10.359375 5.664062h-33.296875l-24 8h-38.703125v-32h-240v41.296875l.40625 1.230469c9.433594 28.304687 34.433594 48.730468 63.59375 52.753906v56.71875c0 13.230469 10.769531 24 24 24s24-10.769531 24-24v-16c0-4.40625 3.59375-8 8-8s8 3.59375 8 8v48c0 13.230469 10.769531 24 24 24s24-10.769531 24-24v-88.710938c13.527344-1.839843 26.023438-7.273437 36.585938-15.289062h66.117187l24 8h161.296875c17.648438 0 32-14.351562 32-32s-14.351562-32-32-32zm-192 40h-43.632812c3.585937-4.886719 6.554687-10.265625 8.960937-16h34.671875zm-106.601562 16h-69.398438v16h64v88c0 4.40625-3.59375 8-8 8s-8-3.59375-8-8v-48c0-13.230469-10.769531-24-24-24s-24 10.769531-24 24v16c0 4.40625-3.59375 8-8 8s-8-3.59375-8-8v-71.761719l-7.703125-.285156c-21.863281-.800781-41.535156-13.257813-51.992187-31.960937h187.695312v-16h-192v-16h208v22.664062c-8.816406 24.785156-32.199219 41.34375-58.601562 41.34375zm298.601562-8h-158.703125l-17.296875-5.769531v-20.46875l17.296875-5.761719h30.703125c11.320312 0 17.304688-5.976562 21.671875-10.335938 3.929687-3.929687 5.847656-5.664062 10.351563-5.664062 4.503906 0 6.433593 1.734375 10.359374 5.664062 4.378907 4.359376 10.351563 10.335938 21.671876 10.335938 11.3125 0 17.289062-5.984375 21.648437-10.34375 3.921875-3.921875 5.839844-5.65625 10.328125-5.65625s6.410156 1.734375 10.328125 5.65625c4.359375 4.359375 10.328125 10.34375 21.640625 10.34375 8.824219 0 16 7.175781 16 16s-7.175781 16-16 16zm0 0" data-original="#000000" class="active-path" data-old_color="#000000" fill="#38220F"/></g> </svg>
